<?xml version="1.0" standalone="no"?>
<!DOCTYPE svg PUBLIC "-//W3C//DTD SVG 1.1//EN"
  "http://www.w3.org/Graphics/SVG/1.1/DTD/svg11.dtd">
<!-- Created with matplotlib (http://matplotlib.sourceforge.net/) -->
<svg width="604pt" height="441pt" viewBox="0 0 604 441"
   xmlns="http://www.w3.org/2000/svg"
   xmlns:xlink="http://www.w3.org/1999/xlink"
   version="1.1"
   id="svg1">
<g id="figure1">
<g id="patch1">
<path style="fill: #ffffff; stroke: #ffffff; stroke-width: 1.000000; stroke-linejoin: round; stroke-linecap: square;  opacity: 1.000000"  d="M0.000000 441.000000L604.800000 441.000000L604.800000 0.000000
L0.000000 0.000000L0.000000 441.000000"/>
</g>
<g id="axes1">
<g id="patch2">
<path style="fill: #ffffff; opacity: 1.000000"  d="M75.600000 396.900000L544.320000 396.900000L544.320000 44.100000
L75.600000 44.100000L75.600000 396.900000"/>
</g>
<g id="line2d1">
<defs>
  <clipPath id="pad5686c19a3042e1d7ff1c6b0e80433d">
<rect x="75.600000" y="44.100000" width="468.720000" height="352.800000"/>
  </clipPath>
</defs><path style="fill: none; stroke: #0000ff; stroke-width: 1.000000; stroke-linejoin: round; stroke-linecap: square;  opacity: 1.000000" clip-path="url(#pad5686c19a3042e1d7ff1c6b0e80433d)" d="M75.600000 336.420000L84.974399 336.613300L88.724160 337.150542
L92.473919 338.342731L96.223680 340.418798L99.973439 343.377791
L109.347839 351.801267L113.097598 354.149282L116.847360 355.582253
L120.597119 356.280504L126.221756 356.566169L139.345921 356.462045
L143.095677 356.060772L146.845439 355.088688L150.595196 353.283748
L154.344958 350.562181L167.469116 339.438323L171.218878 337.747954
L174.968635 336.863533L180.593280 336.451053L195.592317 336.588820
L199.342074 337.084835L203.091841 338.212115L206.841598 340.210542
L210.591354 343.104579L221.840635 352.893368L225.590391 354.852213
L229.340159 355.947001L234.964793 356.518903L248.088952 356.545552
L253.713598 356.111957L257.463354 355.198384L261.213111 353.469489
L264.962878 350.819840L278.087026 339.620674L281.836804 337.854542
L285.586561 336.912480L291.211196 336.457928L304.335365 336.475798
L309.960000 337.023364L313.709756 338.087357L317.459513 340.008239
L321.209269 342.834932L332.458561 352.687969L336.208317 354.724608
L339.958074 355.883670L345.582708 356.507493L358.706878 356.552331
L364.331513 356.159492L368.081269 355.302649L371.831026 353.649189
L375.580782 351.073118L381.205439 345.977615L386.830074 341.081663
L390.579830 338.772487L394.329587 337.375230L398.079343 336.701621
L403.704000 336.431608L416.828147 336.546653L420.577904 336.965988
L424.327683 337.968336L428.077439 339.811857L431.827196 342.568988
L443.076465 352.475548L446.826221 354.590361L450.576000 355.815621
L454.325756 356.374270L461.825269 356.580310L473.074539 356.399773
L476.824295 355.883266L480.574051 354.723600L484.323853 352.686220
L488.073609 349.759330L497.448000 341.315807L501.197756 338.929298
L504.947513 337.460367L508.697269 336.736927L514.321904 336.434878
L527.446051 336.528577L531.195808 336.912500L534.945609 337.855052
L538.695365 339.621763L542.445122 342.307433L544.320000 343.937283
L544.320000 343.937283"/>
</g>
<g id="line2d2">
<path style="fill: none; stroke: #008000; stroke-width: 1.000000; stroke-linejoin: round; stroke-linecap: square;  opacity: 1.000000" clip-path="url(#pad5686c19a3042e1d7ff1c6b0e80433d)" d="M75.600000 346.500000L79.349760 346.816690L83.099520 347.763016
L86.849280 349.305655L94.348799 353.516450L98.098559 355.417880
L101.848320 356.481271L105.598079 356.351312L109.347839 355.073384
L114.972479 351.959620L120.597119 348.938898L124.346878 347.514538
L128.096640 346.698431L131.846397 346.513796L135.596159 346.962458
L139.345921 348.037780L143.095677 349.693575L154.344958 355.725334
L158.094720 356.557930L161.844476 356.170193L165.594238 354.696868
L178.718402 347.869402L182.468159 346.871568L186.217915 346.502342
L189.967683 346.766485L193.717439 347.661107L197.467196 349.157218
L203.091841 352.237751L208.716476 355.285121L212.466232 356.436071
L216.216000 356.409624L219.965756 355.215021L225.590391 352.143781
L231.215037 349.082668L234.964793 347.610643L238.714561 346.742528
L242.464317 346.505270L246.214074 346.901362L249.963841 347.925463
L253.713598 349.536853L266.837756 356.211283L270.587513 356.547005
L274.337269 355.666388L278.087026 353.868118L287.461439 348.729713
L291.211196 347.378420L294.960952 346.640973L298.710708 346.535704
L302.460465 347.063580L306.210244 348.215598L311.834878 350.962941
L319.334391 355.146449L323.084147 356.382345L326.833904 356.459701
L330.583683 355.351502L336.208317 352.328588L341.832952 349.230242
L345.582708 347.711134L349.332465 346.791032L353.082244 346.501012
L356.832000 346.844371L360.581756 347.816861L364.331513 349.382792
L371.831026 353.606726L375.580782 355.483493L379.330561 356.501555
L383.080317 356.319381L386.830074 355.000510L392.454708 351.867466
L398.079343 348.868333L401.829122 347.468239L405.578878 346.678399
L409.328635 346.520287L413.078391 346.995429L416.828147 348.096452
L420.577904 349.774226L431.827196 355.782573L435.576952 356.567237
L439.326708 356.128528L443.076465 354.618657L456.200635 347.816128
L459.950391 346.844117L463.700147 346.501251L467.449904 346.791761
L471.199660 347.712343L474.949417 349.231876L480.574051 352.330537
L486.198731 355.353014L489.948487 356.460456L493.698244 356.382238
L497.448000 355.145692L503.072635 352.052605L508.697269 349.011283
L512.447026 347.562932L516.196782 346.720708L519.946539 346.509657
L523.696295 346.931929L527.446051 347.981558L531.195808 349.615154
L544.320000 356.249735L544.320000 356.249735"/>
</g>
<g id="line2d3">
<path style="fill: none; stroke: #ff0000; stroke-width: 1.000000; stroke-linejoin: round; stroke-linecap: square;  opacity: 1.000000" clip-path="url(#pad5686c19a3042e1d7ff1c6b0e80433d)" d="M75.600000 346.500000L79.349760 346.748780L81.224640 347.338591
L83.099520 348.481328L85.911840 351.588341L87.786720 354.765537
L90.599040 361.272007L94.348799 372.442795L98.098559 383.673467
L99.973439 387.917020L101.848320 390.516911L103.723198 391.125831
L105.598079 389.660036L107.472960 386.319620L110.285280 378.788042
L116.847360 359.262667L119.659680 353.326542L121.534558 350.534850
L122.472000 349.469860L124.346878 347.926477L126.221756 347.035689
L129.971518 346.506258L133.721280 346.411575L135.596159 346.061120
L137.471037 345.262150L139.345921 343.838286L142.158238 340.200421
L144.033116 336.631077L146.845439 329.581632L155.282397 305.378933
L157.157280 302.626183L159.032159 301.844812L160.907037 303.142236
L162.781921 306.340940L165.594238 313.742968L172.156317 333.348580
L174.968635 339.399780L176.843513 342.267405L177.780963 343.367453
L179.655841 344.972306L181.530720 345.910902L185.280476 346.490669
L189.030232 346.573822L190.905122 346.895321L192.780000 347.650205
L194.654878 349.015878L197.467196 352.545766L199.342074 356.036812
L202.154402 362.980989L210.591354 387.313642L212.466232 390.216656
L214.341122 391.169799L216.216000 390.042190L218.090878 386.988394
L219.965756 382.410901L224.652952 368.035636L228.402720 357.762318
L231.215037 352.293118L233.089915 349.801057L234.964793 348.133622
L236.839672 347.145942L240.589439 346.513221L246.214074 346.145266
L248.088952 345.433292L249.963841 344.124762L252.776159 340.701874
L254.651037 337.289162L257.463354 330.451956L262.150561 316.122495
L264.962878 308.134729L266.837756 304.259071L267.775196 302.954318
L269.650074 301.830165L271.524952 302.786685L273.399830 305.692628
L275.274708 310.163146L279.024465 321.550965L282.774244 332.552494
L285.586561 338.832044L287.461439 341.853103L288.398878 343.024540
L290.273756 344.755608L292.148635 345.793589L295.898391 346.481862
L301.523026 346.816937L303.397904 347.487186L305.272804 348.739613
L308.085122 352.056473L309.960000 355.390837L312.772317 362.119487
L316.522074 373.438085L320.271830 384.477932L322.146708 388.479318
L323.084147 389.861050L324.959026 391.155414L326.833904 390.371130
L328.708804 387.616034L330.583683 383.256457L334.333439 371.942880
L338.083196 360.855002L340.895513 354.462218L342.770391 351.363681
L343.707830 350.155890L345.582708 348.360077L347.457587 347.270517
L349.332465 346.718997L358.706878 345.588462L360.581756 344.391135
L363.394074 341.179248L365.268952 337.923208L368.081269 331.304590
L371.831026 320.057117L375.580782 308.918408L377.455683 304.794649
L378.393122 303.337158L380.268000 301.873641L382.142878 302.484607
L384.017756 305.086224L385.892635 309.330992L389.642391 320.562187
L393.392147 331.731638L396.204465 338.236788L398.079343 341.413177
L399.954244 343.687836L401.829122 345.170424L403.704000 346.014340
L407.453756 346.495969L411.203513 346.605305L413.078391 346.986442
L414.953269 347.831263L417.765587 350.345775L419.640465 353.062824
L421.515343 356.711011L424.327683 363.864631L432.764635 387.919249
L434.639513 390.517997L436.514391 391.125856L438.389269 389.659232
L440.264147 386.318337L443.076465 378.786676L449.638561 359.262557
L452.450878 353.326961L454.325756 350.535474L455.263173 349.470554
L457.138051 347.927168L459.012930 347.036314L462.762731 346.506524
L466.512487 346.411269L468.387365 346.060477L470.262244 345.261162
L472.137122 343.836974L474.949417 340.198752L476.824295 336.629272
L479.636635 329.579840L488.073609 305.378589L489.948487 302.626163
L491.823365 301.844863L493.698244 303.142026L495.573122 306.340230
L498.385417 313.741367L504.947513 333.346177L507.759853 339.397625
L509.634731 342.265565L510.572147 343.365770L512.447026 344.971050
L514.321904 345.910064L518.071660 346.490560L521.821417 346.574194
L523.696295 346.895802L525.571173 347.650690L527.446051 349.016247
L530.258391 352.545747L532.133269 356.036358L534.945609 362.979786
L544.320000 388.988636L544.320000 388.988636"/>
</g>
<g id="line2d4">
<path style="fill: none; stroke: #00bfbf; stroke-width: 1.000000; stroke-linejoin: round; stroke-linecap: square;  opacity: 1.000000" clip-path="url(#pad5686c19a3042e1d7ff1c6b0e80433d)" d="M75.600000 346.500000L85.911840 367.548072L88.724160 371.830980
L89.661599 372.862705L91.536480 374.092159L93.411360 373.940683
L95.286239 372.138598L97.161119 368.545265L99.036000 363.219966
L101.848320 352.706263L107.472960 330.291989L109.347839 324.833145
L111.222720 321.090741L112.160159 319.896407L114.035040 318.808980
L115.909918 319.270898L118.722238 322.202071L121.534558 326.867428
L127.159201 338.258493L141.220799 367.272482L144.033116 371.637166
L144.970561 372.708723L146.845439 374.038436L148.720317 374.013023
L150.595196 372.355561L152.470079 368.911782L154.344958 363.722227
L157.157280 353.342379L162.781921 330.814173L164.656799 325.223945
L166.531677 321.332824L167.469116 320.063868L169.344000 318.836753
L171.218878 319.180642L174.031196 321.985214L176.843513 326.579999
L181.530720 335.964032L196.529756 366.993450L199.342074 371.437064
L200.279513 372.547360L202.154402 373.975152L204.029280 374.073944
L205.904159 372.560130L207.779037 369.266331L209.653915 364.214617
L212.466232 353.974613L219.028317 328.293484L220.903196 323.384352
L222.778074 320.243815L224.652952 318.875495L226.527841 319.099133
L229.340159 321.773507L232.152476 326.294857L236.839672 335.638077
L252.776159 368.361411L255.588476 372.378853L257.463354 373.902521
L259.338232 374.123634L261.213111 372.752375L263.088000 369.608869
L264.962878 364.696915L267.775196 354.602573L274.337269 328.776109
L276.212147 323.727214L278.087026 320.436361L279.961926 318.925352
L281.836804 319.026571L284.649122 321.567236L287.461439 326.012306
L292.148635 335.312258L308.085122 368.094939L310.897439 372.203455
L312.772317 373.820863L314.647196 374.162444L316.522074 372.932686
L318.396952 369.939536L320.271830 365.169211L323.084147 355.226346
L329.646244 329.269727L331.521122 324.082585L333.396000 320.641393
L334.333439 319.596469L336.208317 318.786047L338.083196 319.479209
L340.895513 322.655002L343.707830 327.454147L349.332465 338.918516
L363.394074 367.824456L366.206391 372.021180L368.081269 373.730202
L369.956147 374.190359L371.831026 373.100946L373.705904 370.258301
L375.580782 365.631260L378.393122 355.845218L385.892635 326.908855
L387.767513 322.429365L389.642391 319.739987L391.517269 318.792224
L393.392147 319.371123L396.204465 322.426514L399.016782 327.160145
L404.641439 338.589025L418.703026 367.550506L421.515343 371.832527
L422.452782 372.863849L424.327683 374.092374L426.202561 373.939893
L428.077439 372.136762L429.952317 368.542526L431.827196 363.216520
L434.639513 352.702465L440.264147 330.290022L442.139026 324.832084
L444.013904 321.090498L444.951343 319.896506L446.826221 318.809607
L448.701122 319.271879L451.513417 322.203229L454.325756 326.868592
L459.950391 338.259509L474.012000 367.273010L476.824295 371.637205
L477.761756 372.708613L479.636635 374.037988L481.511513 374.012314
L483.386391 372.354689L485.261269 368.910905L487.136147 363.721534
L489.948487 353.342228L495.573122 330.815556L497.448000 325.225424
L499.322878 321.334160L500.260295 320.065007L502.135173 318.837479
L504.010051 319.180882L506.822391 321.984765L509.634731 326.579028
L514.321904 335.962565L529.320930 366.991785L532.133269 371.435595
L533.070731 372.546040L534.945609 373.974207L536.820487 374.073607
L538.695365 372.560607L540.570244 369.267786L542.445122 364.217142
L544.320000 357.668161L544.320000 357.668161"/>
</g>
<g id="line2d5">
<path style="fill: none; stroke: #bf00bf; stroke-width: 1.000000; stroke-linejoin: round; stroke-linecap: square;  opacity: 1.000000" clip-path="url(#pad5686c19a3042e1d7ff1c6b0e80433d)" d="M75.600000 346.500000L77.474880 344.167139L78.412320 341.251334
L80.287200 331.926492L82.162080 317.974994L84.036960 299.497295
L86.849280 263.845160L90.599040 204.496230L97.161119 96.064376
L99.036000 73.064359L100.910878 57.224379L101.848320 52.451387
L102.785759 49.939064L104.660640 51.876083L105.598079 56.280133
L107.472960 71.454876L109.347839 93.928078L112.160159 137.187076
L119.659680 261.620337L122.472000 297.767109L125.284317 324.351423
L127.159201 336.380531L129.034079 343.763882L129.971518 345.706997
L131.846397 346.094008L132.783841 344.537869L133.721280 341.815487
L135.596159 332.876524L137.471037 319.306371L139.345921 301.197789
L142.158238 266.046059L145.908000 207.144588L152.470079 98.241039
L154.344958 74.727609L156.219836 58.232170L157.157280 53.093530
L158.094720 50.200637L159.969598 51.367693L160.907037 55.400173
L162.781921 69.900022L164.656799 91.832723L167.469116 134.596880
L175.906074 272.552141L178.718402 306.161933L180.593280 323.144773
L182.468159 335.557187L184.343037 343.327058L185.280476 345.463770
L187.155354 346.238140L188.092793 344.875751L189.030232 342.347109
L190.905122 333.794776L192.780000 320.607306L194.654878 302.870187
L197.467196 268.224847L201.216952 209.786640L207.779037 100.458078
L209.653915 76.444258L211.528793 59.303116L212.466232 53.802056
L213.403672 50.530057L215.278561 50.924647L216.216000 54.582006
L218.090878 68.395729L219.965756 89.773585L222.778074 132.020084
L231.215037 270.424175L234.027354 304.548009L235.902232 321.904493
L237.777122 334.700547L239.652000 342.857493L240.589439 345.188098
L241.526878 346.352422L243.401756 345.181942L244.339196 342.847235
L246.214074 334.682125L248.088952 321.878112L249.963841 304.513857
L252.776159 270.379527L256.525915 212.417858L264.025439 89.734081
L265.900317 68.368228L267.775196 54.569937L268.712635 50.920805
L269.650074 49.567835L271.524952 53.822702L272.462391 59.331371
L274.337269 76.485449L276.212147 100.509125L279.961926 161.231047
L285.586561 254.790519L288.398878 292.388915L291.211196 320.631848
L293.086074 333.811090L294.960952 342.355248L295.898391 344.879897
L296.835830 346.238351L298.710708 345.456217L299.648147 343.315711
L301.523026 335.538507L303.397904 323.119149L305.272804 306.129634
L308.085122 272.512042L310.897439 230.476533L320.271830 80.023088
L322.146708 61.619832L324.021587 51.377640L324.959026 49.638261
L326.833904 53.124514L327.771365 58.269456L329.646244 74.774315
L331.521122 98.294639L334.333439 142.477535L341.832952 266.083957
L344.645269 301.224465L347.457587 326.681991L349.332465 337.935915
L351.207343 344.539418L352.144804 346.092401L354.019683 345.699318
L354.957122 343.753343L355.894561 340.641425L357.769439 330.925909
L359.644317 316.589444L361.519196 297.740622L364.331513 261.590111
L368.081269 201.809659L374.643343 93.918561L376.518244 71.455277
L378.393122 56.291717L379.330561 51.893184L380.268000 49.768251
L382.142878 52.482955L383.080317 57.259504L384.955196 73.105769
L386.830074 96.109565L389.642391 139.840439L397.141904 263.871770
L399.954244 299.515073L402.766561 325.534331L404.641439 337.174549
L406.516317 344.166935L407.453756 345.914510L409.328635 345.910793
L410.266074 344.159476L411.203513 341.242152L413.078391 331.914667
L414.953269 317.961183L416.828147 299.482205L419.640465 263.829938
L423.390221 204.484816L429.952317 96.071523L431.827196 73.078579
L433.702074 57.245802L434.639513 52.476396L435.576952 49.967069
L437.451830 51.908679L438.389269 56.314449L440.264147 71.490499
L442.139026 93.963500L444.951343 137.218343L452.450878 261.632753
L455.263173 297.772437L458.075513 324.351514L459.950391 336.377703
L461.825269 343.758817L462.762731 345.701097L464.637609 346.086810
L465.575026 344.530345L466.512487 341.807709L468.387365 332.868854
L470.262244 319.299578L472.137122 301.192797L474.949417 266.045619
L478.699173 207.153149L485.261269 98.268946L487.136147 74.759860
L489.011026 58.267126L489.948487 53.130003L490.885904 50.237336
L492.760782 51.403285L493.698244 55.434735L495.573122 69.930473
L497.448000 91.858015L500.260295 134.613109L508.697269 272.547055
L511.509609 306.153932L513.384487 323.135890L515.259365 335.548252
L517.134244 343.318766L518.071660 345.456024L519.946539 346.232092
L520.884000 344.870729L521.821417 342.343393L523.696295 333.794176
L525.571173 320.610348L527.446051 302.877555L530.258391 268.239402
L534.008147 209.812086L540.570244 100.497768L542.445122 76.484063
L544.320000 59.340287L544.320000 59.340287"/>
</g>
<g id="matplotlib.axis1">
<g id="xtick1">
<g id="line2d6">
<defs><path id="m30e32995789d870ad79a2e54c91cf9c6" d="M0.000000 0.000000L0.000000 -4.000000"/></defs>
<g ><use style="fill: none; stroke: #000000; stroke-width: 0.500000; stroke-linejoin: round; stroke-linecap: butt;  opacity: 1.000000" xlink:href="#m30e32995789d870ad79a2e54c91cf9c6" x="75.600000" y="396.900000"/>
</g></g>
<g id="line2d7">
<defs><path id="m9281cae24120827b11d5ea8a7ad3e96b" d="M0.000000 0.000000L0.000000 4.000000"/></defs>
<g ><use style="fill: none; stroke: #000000; stroke-width: 0.500000; stroke-linejoin: round; stroke-linecap: butt;  opacity: 1.000000" xlink:href="#m9281cae24120827b11d5ea8a7ad3e96b" x="75.600000" y="44.100000"/>
</g></g>
<g id="text1">
<defs>
<path id="c_7a2040fe3b94fcd41d0a72c84e93b115" d="M31.781250 -66.406250q-7.609375 0.000000 -11.453125 7.500000q-3.828125 7.484375 -3.828125 22.531250q0.000000 14.984375 3.828125 22.484375q3.843750 7.500000 11.453125 7.500000q7.671875 0.000000 11.500000 -7.500000q3.843750 -7.500000 3.843750 -22.484375q0.000000 -15.046875 -3.843750 -22.531250q-3.828125 -7.500000 -11.500000 -7.500000M31.781250 -74.218750q12.265625 0.000000 18.734375 9.703125q6.468750 9.687500 6.468750 28.140625q0.000000 18.406250 -6.468750 28.109375q-6.468750 9.687500 -18.734375 9.687500q-12.250000 0.000000 -18.718750 -9.687500q-6.468750 -9.703125 -6.468750 -28.109375q0.000000 -18.453125 6.468750 -28.140625q6.468750 -9.703125 18.718750 -9.703125"/>
</defs>
<g style="fill: #000000; opacity: 1.000000" transform="translate(72.576563,409.806250)scale(0.120000)">
<use xlink:href="#c_7a2040fe3b94fcd41d0a72c84e93b115"/>
</g>
</g>
</g>
<g id="xtick2">
<g id="line2d8">
<g ><use style="fill: none; stroke: #000000; stroke-width: 0.500000; stroke-linejoin: round; stroke-linecap: butt;  opacity: 1.000000" xlink:href="#m30e32995789d870ad79a2e54c91cf9c6" x="169.344000" y="396.900000"/>
</g></g>
<g id="line2d9">
<g ><use style="fill: none; stroke: #000000; stroke-width: 0.500000; stroke-linejoin: round; stroke-linecap: butt;  opacity: 1.000000" xlink:href="#m9281cae24120827b11d5ea8a7ad3e96b" x="169.344000" y="44.100000"/>
</g></g>
<g id="text2">
<defs>
<path id="c_ed3f3ed3ebfbd18bcb9c012009a68ad1" d="M19.187500 -8.296875l34.421875 0.000000l0.000000 8.296875l-46.281250 0.000000l0.000000 -8.296875q5.609375 -5.812500 15.296875 -15.593750q9.703125 -9.796875 12.187500 -12.640625q4.734375 -5.312500 6.609375 -9.000000q1.890625 -3.687500 1.890625 -7.250000q0.000000 -5.812500 -4.078125 -9.468750q-4.078125 -3.671875 -10.625000 -3.671875q-4.640625 0.000000 -9.796875 1.609375q-5.140625 1.609375 -11.000000 4.890625l0.000000 -9.968750q5.953125 -2.390625 11.125000 -3.609375q5.187500 -1.218750 9.484375 -1.218750q11.328125 0.000000 18.062500 5.671875q6.734375 5.656250 6.734375 15.125000q0.000000 4.500000 -1.687500 8.531250q-1.671875 4.015625 -6.125000 9.484375q-1.218750 1.421875 -7.765625 8.187500q-6.531250 6.765625 -18.453125 18.921875"/>
</defs>
<g style="fill: #000000; opacity: 1.000000" transform="translate(166.562750,409.806250)scale(0.120000)">
<use xlink:href="#c_ed3f3ed3ebfbd18bcb9c012009a68ad1"/>
</g>
</g>
</g>
<g id="xtick3">
<g id="line2d10">
<g ><use style="fill: none; stroke: #000000; stroke-width: 0.500000; stroke-linejoin: round; stroke-linecap: butt;  opacity: 1.000000" xlink:href="#m30e32995789d870ad79a2e54c91cf9c6" x="263.088000" y="396.900000"/>
</g></g>
<g id="line2d11">
<g ><use style="fill: none; stroke: #000000; stroke-width: 0.500000; stroke-linejoin: round; stroke-linecap: butt;  opacity: 1.000000" xlink:href="#m9281cae24120827b11d5ea8a7ad3e96b" x="263.088000" y="44.100000"/>
</g></g>
<g id="text3">
<defs>
<path id="c_a0416418d96557a09b8c1332d34883ba" d="M37.796875 -64.312500l-24.906250 38.921875l24.906250 0.000000zM35.203125 -72.906250l12.406250 0.000000l0.000000 47.515625l10.406250 0.000000l0.000000 8.203125l-10.406250 0.000000l0.000000 17.187500l-9.812500 0.000000l0.000000 -17.187500l-32.906250 0.000000l0.000000 -9.515625z"/>
</defs>
<g style="fill: #000000; opacity: 1.000000" transform="translate(259.900500,409.650000)scale(0.120000)">
<use xlink:href="#c_a0416418d96557a09b8c1332d34883ba"/>
</g>
</g>
</g>
<g id="xtick4">
<g id="line2d12">
<g ><use style="fill: none; stroke: #000000; stroke-width: 0.500000; stroke-linejoin: round; stroke-linecap: butt;  opacity: 1.000000" xlink:href="#m30e32995789d870ad79a2e54c91cf9c6" x="356.832000" y="396.900000"/>
</g></g>
<g id="line2d13">
<g ><use style="fill: none; stroke: #000000; stroke-width: 0.500000; stroke-linejoin: round; stroke-linecap: butt;  opacity: 1.000000" xlink:href="#m9281cae24120827b11d5ea8a7ad3e96b" x="356.832000" y="44.100000"/>
</g></g>
<g id="text4">
<defs>
<path id="c_cc8d6d580d1b10c8632f7a42cd53db8a" d="M33.015625 -40.375000q-6.640625 0.000000 -10.531250 4.546875q-3.875000 4.531250 -3.875000 12.437500q0.000000 7.859375 3.875000 12.437500q3.890625 4.562500 10.531250 4.562500q6.640625 0.000000 10.515625 -4.562500q3.875000 -4.578125 3.875000 -12.437500q0.000000 -7.906250 -3.875000 -12.437500q-3.875000 -4.546875 -10.515625 -4.546875M52.593750 -71.296875l0.000000 8.984375q-3.718750 -1.750000 -7.500000 -2.671875q-3.781250 -0.937500 -7.500000 -0.937500q-9.765625 0.000000 -14.921875 6.593750q-5.140625 6.593750 -5.875000 19.921875q2.875000 -4.250000 7.218750 -6.515625q4.359375 -2.265625 9.578125 -2.265625q10.984375 0.000000 17.359375 6.671875q6.375000 6.656250 6.375000 18.125000q0.000000 11.234375 -6.640625 18.031250q-6.640625 6.781250 -17.671875 6.781250q-12.656250 0.000000 -19.343750 -9.687500q-6.687500 -9.703125 -6.687500 -28.109375q0.000000 -17.281250 8.203125 -27.562500q8.203125 -10.281250 22.015625 -10.281250q3.718750 0.000000 7.500000 0.734375q3.781250 0.734375 7.890625 2.187500"/>
</defs>
<g style="fill: #000000; opacity: 1.000000" transform="translate(353.816375,409.806250)scale(0.120000)">
<use xlink:href="#c_cc8d6d580d1b10c8632f7a42cd53db8a"/>
</g>
</g>
</g>
<g id="xtick5">
<g id="line2d14">
<g ><use style="fill: none; stroke: #000000; stroke-width: 0.500000; stroke-linejoin: round; stroke-linecap: butt;  opacity: 1.000000" xlink:href="#m30e32995789d870ad79a2e54c91cf9c6" x="450.576000" y="396.900000"/>
</g></g>
<g id="line2d15">
<g ><use style="fill: none; stroke: #000000; stroke-width: 0.500000; stroke-linejoin: round; stroke-linecap: butt;  opacity: 1.000000" xlink:href="#m9281cae24120827b11d5ea8a7ad3e96b" x="450.576000" y="44.100000"/>
</g></g>
<g id="text5">
<defs>
<path id="c_bef35738d52871942e50b9de9b122bab" d="M31.781250 -34.625000q-7.031250 0.000000 -11.062500 3.765625q-4.015625 3.765625 -4.015625 10.343750q0.000000 6.593750 4.015625 10.359375q4.031250 3.765625 11.062500 3.765625q7.031250 0.000000 11.078125 -3.781250q4.062500 -3.796875 4.062500 -10.343750q0.000000 -6.578125 -4.031250 -10.343750q-4.015625 -3.765625 -11.109375 -3.765625M21.921875 -38.812500q-6.343750 -1.562500 -9.890625 -5.906250q-3.531250 -4.359375 -3.531250 -10.609375q0.000000 -8.734375 6.218750 -13.812500q6.234375 -5.078125 17.062500 -5.078125q10.890625 0.000000 17.093750 5.078125q6.203125 5.078125 6.203125 13.812500q0.000000 6.250000 -3.546875 10.609375q-3.531250 4.343750 -9.828125 5.906250q7.125000 1.656250 11.093750 6.500000q3.984375 4.828125 3.984375 11.796875q0.000000 10.609375 -6.468750 16.281250q-6.468750 5.656250 -18.531250 5.656250q-12.046875 0.000000 -18.531250 -5.656250q-6.468750 -5.671875 -6.468750 -16.281250q0.000000 -6.968750 4.000000 -11.796875q4.015625 -4.843750 11.140625 -6.500000M18.312500 -54.390625q0.000000 5.656250 3.531250 8.828125q3.546875 3.171875 9.937500 3.171875q6.359375 0.000000 9.937500 -3.171875q3.593750 -3.171875 3.593750 -8.828125q0.000000 -5.671875 -3.593750 -8.843750q-3.578125 -3.171875 -9.937500 -3.171875q-6.390625 0.000000 -9.937500 3.171875q-3.531250 3.171875 -3.531250 8.843750"/>
</defs>
<g style="fill: #000000; opacity: 1.000000" transform="translate(447.576000,409.806250)scale(0.120000)">
<use xlink:href="#c_bef35738d52871942e50b9de9b122bab"/>
</g>
</g>
</g>
<g id="xtick6">
<g id="line2d16">
<g ><use style="fill: none; stroke: #000000; stroke-width: 0.500000; stroke-linejoin: round; stroke-linecap: butt;  opacity: 1.000000" xlink:href="#m30e32995789d870ad79a2e54c91cf9c6" x="544.320000" y="396.900000"/>
</g></g>
<g id="line2d17">
<g ><use style="fill: none; stroke: #000000; stroke-width: 0.500000; stroke-linejoin: round; stroke-linecap: butt;  opacity: 1.000000" xlink:href="#m9281cae24120827b11d5ea8a7ad3e96b" x="544.320000" y="44.100000"/>
</g></g>
<g id="text6">
<defs>
<path id="c_42baa63129a918535c52adb20d687ea7" d="M12.406250 -8.296875l16.109375 0.000000l0.000000 -55.625000l-17.531250 3.515625l0.000000 -8.984375l17.437500 -3.515625l9.859375 0.000000l0.000000 64.609375l16.109375 0.000000l0.000000 8.296875l-41.984375 0.000000z"/>
</defs>
<g style="fill: #000000; opacity: 1.000000" transform="translate(537.734063,409.806250)scale(0.120000)">
<use xlink:href="#c_42baa63129a918535c52adb20d687ea7"/>
<use xlink:href="#c_7a2040fe3b94fcd41d0a72c84e93b115" x="63.623047"/>
</g>
</g>
</g>
<g id="text7">
<defs>
<path id="c_0f8c41144cfbf448378cb6fd1cc8e549" d="M18.312500 -70.218750l0.000000 15.531250l18.500000 0.000000l0.000000 6.984375l-18.500000 0.000000l0.000000 29.687500q0.000000 6.687500 1.828125 8.593750q1.828125 1.906250 7.453125 1.906250l9.218750 0.000000l0.000000 7.515625l-9.218750 0.000000q-10.406250 0.000000 -14.359375 -3.875000q-3.953125 -3.890625 -3.953125 -14.140625l0.000000 -29.687500l-6.593750 0.000000l0.000000 -6.984375l6.593750 0.000000l0.000000 -15.531250z"/>
<path id="c_6a63bda47b2f3da1cec6aadd80692cfe" d="M9.421875 -54.687500l8.984375 0.000000l0.000000 54.687500l-8.984375 0.000000zM9.421875 -75.984375l8.984375 0.000000l0.000000 11.390625l-8.984375 0.000000z"/>
<path id="c_4653c6dfde66c7610eae0911760d3490" d="M52.000000 -44.187500q3.375000 -6.062500 8.062500 -8.937500q4.687500 -2.875000 11.031250 -2.875000q8.546875 0.000000 13.187500 5.984375q4.640625 5.968750 4.640625 17.000000l0.000000 33.015625l-9.031250 0.000000l0.000000 -32.718750q0.000000 -7.859375 -2.796875 -11.656250q-2.781250 -3.812500 -8.484375 -3.812500q-6.984375 0.000000 -11.046875 4.640625q-4.046875 4.625000 -4.046875 12.640625l0.000000 30.906250l-9.031250 0.000000l0.000000 -32.718750q0.000000 -7.906250 -2.781250 -11.687500q-2.781250 -3.781250 -8.593750 -3.781250q-6.890625 0.000000 -10.953125 4.656250q-4.046875 4.656250 -4.046875 12.625000l0.000000 30.906250l-9.031250 0.000000l0.000000 -54.687500l9.031250 0.000000l0.000000 8.500000q3.078125 -5.031250 7.375000 -7.421875q4.296875 -2.390625 10.203125 -2.390625q5.968750 0.000000 10.140625 3.031250q4.171875 3.015625 6.171875 8.781250"/>
<path id="c_0bce5afba2dc6b9024b26277c38ad8e8" d="M56.203125 -29.593750l0.000000 4.390625l-41.312500 0.000000q0.593750 9.281250 5.593750 14.140625q5.000000 4.859375 13.937500 4.859375q5.171875 0.000000 10.031250 -1.265625q4.859375 -1.265625 9.656250 -3.812500l0.000000 8.500000q-4.843750 2.046875 -9.921875 3.125000q-5.078125 1.078125 -10.296875 1.078125q-13.093750 0.000000 -20.734375 -7.609375q-7.640625 -7.625000 -7.640625 -20.625000q0.000000 -13.421875 7.250000 -21.296875q7.250000 -7.890625 19.562500 -7.890625q11.031250 0.000000 17.453125 7.109375q6.421875 7.093750 6.421875 19.296875M47.218750 -32.234375q-0.093750 -7.359375 -4.125000 -11.750000q-4.031250 -4.406250 -10.671875 -4.406250q-7.515625 0.000000 -12.031250 4.250000q-4.515625 4.250000 -5.203125 11.968750z"/>
</defs>
<g style="fill: #000000; opacity: 1.000000" transform="translate(296.889688,424.103125)scale(0.120000)">
<use xlink:href="#c_0f8c41144cfbf448378cb6fd1cc8e549"/>
<use xlink:href="#c_6a63bda47b2f3da1cec6aadd80692cfe" x="39.208984"/>
<use xlink:href="#c_4653c6dfde66c7610eae0911760d3490" x="66.992188"/>
<use xlink:href="#c_0bce5afba2dc6b9024b26277c38ad8e8" x="164.404297"/>
</g>
</g>
</g>
<g id="matplotlib.axis2">
<g id="ytick1">
<g id="line2d18">
<defs><path id="m3400efa6b1638b3fea9e19e898273957" d="M0.000000 0.000000L4.000000 0.000000"/></defs>
<g ><use style="fill: none; stroke: #000000; stroke-width: 0.500000; stroke-linejoin: round; stroke-linecap: butt;  opacity: 1.000000" xlink:href="#m3400efa6b1638b3fea9e19e898273957" x="75.600000" y="396.900000"/>
</g></g>
<g id="line2d19">
<defs><path id="m20b58b2501143cb5e0a5e8f1ef6f1643" d="M0.000000 0.000000L-4.000000 0.000000"/></defs>
<g ><use style="fill: none; stroke: #000000; stroke-width: 0.500000; stroke-linejoin: round; stroke-linecap: butt;  opacity: 1.000000" xlink:href="#m20b58b2501143cb5e0a5e8f1ef6f1643" x="544.320000" y="396.900000"/>
</g></g>
<g id="text8">
<defs>
<path id="c_6a8d56c819c37117ab4cf023bec22a5a" d="M10.593750 -35.500000l62.593750 0.000000l0.000000 8.296875l-62.593750 0.000000z"/>
<path id="c_1260a2df50f305f3db244e29828f968e" d="M10.796875 -72.906250l38.718750 0.000000l0.000000 8.312500l-29.687500 0.000000l0.000000 17.859375q2.140625 -0.734375 4.281250 -1.093750q2.156250 -0.359375 4.312500 -0.359375q12.203125 0.000000 19.328125 6.687500q7.140625 6.687500 7.140625 18.109375q0.000000 11.765625 -7.328125 18.296875q-7.328125 6.515625 -20.656250 6.515625q-4.593750 0.000000 -9.359375 -0.781250q-4.750000 -0.781250 -9.828125 -2.343750l0.000000 -9.921875q4.390625 2.390625 9.078125 3.562500q4.687500 1.171875 9.906250 1.171875q8.453125 0.000000 13.375000 -4.437500q4.937500 -4.437500 4.937500 -12.062500q0.000000 -7.609375 -4.937500 -12.046875q-4.921875 -4.453125 -13.375000 -4.453125q-3.953125 0.000000 -7.890625 0.875000q-3.921875 0.875000 -8.015625 2.734375z"/>
</defs>
<g style="fill: #000000; opacity: 1.000000" transform="translate(56.209375,401.189062)scale(0.120000)">
<use xlink:href="#c_6a8d56c819c37117ab4cf023bec22a5a"/>
<use xlink:href="#c_1260a2df50f305f3db244e29828f968e" x="83.789062"/>
</g>
</g>
</g>
<g id="ytick2">
<g id="line2d20">
<g ><use style="fill: none; stroke: #000000; stroke-width: 0.500000; stroke-linejoin: round; stroke-linecap: butt;  opacity: 1.000000" xlink:href="#m3400efa6b1638b3fea9e19e898273957" x="75.600000" y="346.500000"/>
</g></g>
<g id="line2d21">
<g ><use style="fill: none; stroke: #000000; stroke-width: 0.500000; stroke-linejoin: round; stroke-linecap: butt;  opacity: 1.000000" xlink:href="#m20b58b2501143cb5e0a5e8f1ef6f1643" x="544.320000" y="346.500000"/>
</g></g>
<g id="text9">
<g style="fill: #000000; opacity: 1.000000" transform="translate(65.553125,350.867188)scale(0.120000)">
<use xlink:href="#c_7a2040fe3b94fcd41d0a72c84e93b115"/>
</g>
</g>
</g>
<g id="ytick3">
<g id="line2d22">
<g ><use style="fill: none; stroke: #000000; stroke-width: 0.500000; stroke-linejoin: round; stroke-linecap: butt;  opacity: 1.000000" xlink:href="#m3400efa6b1638b3fea9e19e898273957" x="75.600000" y="296.100000"/>
</g></g>
<g id="line2d23">
<g ><use style="fill: none; stroke: #000000; stroke-width: 0.500000; stroke-linejoin: round; stroke-linecap: butt;  opacity: 1.000000" xlink:href="#m20b58b2501143cb5e0a5e8f1ef6f1643" x="544.320000" y="296.100000"/>
</g></g>
<g id="text10">
<g style="fill: #000000; opacity: 1.000000" transform="translate(65.928125,300.389063)scale(0.120000)">
<use xlink:href="#c_1260a2df50f305f3db244e29828f968e"/>
</g>
</g>
</g>
<g id="ytick4">
<g id="line2d24">
<g ><use style="fill: none; stroke: #000000; stroke-width: 0.500000; stroke-linejoin: round; stroke-linecap: butt;  opacity: 1.000000" xlink:href="#m3400efa6b1638b3fea9e19e898273957" x="75.600000" y="245.700000"/>
</g></g>
<g id="line2d25">
<g ><use style="fill: none; stroke: #000000; stroke-width: 0.500000; stroke-linejoin: round; stroke-linecap: butt;  opacity: 1.000000" xlink:href="#m20b58b2501143cb5e0a5e8f1ef6f1643" x="544.320000" y="245.700000"/>
</g></g>
<g id="text11">
<g style="fill: #000000; opacity: 1.000000" transform="translate(58.428125,250.067187)scale(0.120000)">
<use xlink:href="#c_42baa63129a918535c52adb20d687ea7"/>
<use xlink:href="#c_7a2040fe3b94fcd41d0a72c84e93b115" x="63.623047"/>
</g>
</g>
</g>
<g id="ytick5">
<g id="line2d26">
<g ><use style="fill: none; stroke: #000000; stroke-width: 0.500000; stroke-linejoin: round; stroke-linecap: butt;  opacity: 1.000000" xlink:href="#m3400efa6b1638b3fea9e19e898273957" x="75.600000" y="195.300000"/>
</g></g>
<g id="line2d27">
<g ><use style="fill: none; stroke: #000000; stroke-width: 0.500000; stroke-linejoin: round; stroke-linecap: butt;  opacity: 1.000000" xlink:href="#m20b58b2501143cb5e0a5e8f1ef6f1643" x="544.320000" y="195.300000"/>
</g></g>
<g id="text12">
<g style="fill: #000000; opacity: 1.000000" transform="translate(58.678125,199.589062)scale(0.120000)">
<use xlink:href="#c_42baa63129a918535c52adb20d687ea7"/>
<use xlink:href="#c_1260a2df50f305f3db244e29828f968e" x="63.623047"/>
</g>
</g>
</g>
<g id="ytick6">
<g id="line2d28">
<g ><use style="fill: none; stroke: #000000; stroke-width: 0.500000; stroke-linejoin: round; stroke-linecap: butt;  opacity: 1.000000" xlink:href="#m3400efa6b1638b3fea9e19e898273957" x="75.600000" y="144.900000"/>
</g></g>
<g id="line2d29">
<g ><use style="fill: none; stroke: #000000; stroke-width: 0.500000; stroke-linejoin: round; stroke-linecap: butt;  opacity: 1.000000" xlink:href="#m20b58b2501143cb5e0a5e8f1ef6f1643" x="544.320000" y="144.900000"/>
</g></g>
<g id="text13">
<g style="fill: #000000; opacity: 1.000000" transform="translate(57.990625,149.267187)scale(0.120000)">
<use xlink:href="#c_ed3f3ed3ebfbd18bcb9c012009a68ad1"/>
<use xlink:href="#c_7a2040fe3b94fcd41d0a72c84e93b115" x="63.623047"/>
</g>
</g>
</g>
<g id="ytick7">
<g id="line2d30">
<g ><use style="fill: none; stroke: #000000; stroke-width: 0.500000; stroke-linejoin: round; stroke-linecap: butt;  opacity: 1.000000" xlink:href="#m3400efa6b1638b3fea9e19e898273957" x="75.600000" y="94.500000"/>
</g></g>
<g id="line2d31">
<g ><use style="fill: none; stroke: #000000; stroke-width: 0.500000; stroke-linejoin: round; stroke-linecap: butt;  opacity: 1.000000" xlink:href="#m20b58b2501143cb5e0a5e8f1ef6f1643" x="544.320000" y="94.500000"/>
</g></g>
<g id="text14">
<g style="fill: #000000; opacity: 1.000000" transform="translate(58.240625,98.867187)scale(0.120000)">
<use xlink:href="#c_ed3f3ed3ebfbd18bcb9c012009a68ad1"/>
<use xlink:href="#c_1260a2df50f305f3db244e29828f968e" x="63.623047"/>
</g>
</g>
</g>
<g id="ytick8">
<g id="line2d32">
<g ><use style="fill: none; stroke: #000000; stroke-width: 0.500000; stroke-linejoin: round; stroke-linecap: butt;  opacity: 1.000000" xlink:href="#m3400efa6b1638b3fea9e19e898273957" x="75.600000" y="44.100000"/>
</g></g>
<g id="line2d33">
<g ><use style="fill: none; stroke: #000000; stroke-width: 0.500000; stroke-linejoin: round; stroke-linecap: butt;  opacity: 1.000000" xlink:href="#m20b58b2501143cb5e0a5e8f1ef6f1643" x="544.320000" y="44.100000"/>
</g></g>
<g id="text15">
<defs>
<path id="c_3dcfa38a02242cb63ec6726c6e70be7a" d="M40.578125 -39.312500q7.078125 1.515625 11.046875 6.312500q3.984375 4.781250 3.984375 11.812500q0.000000 10.781250 -7.421875 16.703125q-7.421875 5.906250 -21.093750 5.906250q-4.578125 0.000000 -9.437500 -0.906250q-4.859375 -0.906250 -10.031250 -2.718750l0.000000 -9.515625q4.093750 2.390625 8.968750 3.609375q4.890625 1.218750 10.218750 1.218750q9.265625 0.000000 14.125000 -3.656250q4.859375 -3.656250 4.859375 -10.640625q0.000000 -6.453125 -4.515625 -10.078125q-4.515625 -3.640625 -12.562500 -3.640625l-8.500000 0.000000l0.000000 -8.109375l8.890625 0.000000q7.265625 0.000000 11.125000 -2.906250q3.859375 -2.906250 3.859375 -8.375000q0.000000 -5.609375 -3.984375 -8.609375q-3.968750 -3.015625 -11.390625 -3.015625q-4.062500 0.000000 -8.703125 0.890625q-4.640625 0.875000 -10.203125 2.718750l0.000000 -8.781250q5.625000 -1.562500 10.531250 -2.343750q4.906250 -0.781250 9.250000 -0.781250q11.234375 0.000000 17.765625 5.109375q6.546875 5.093750 6.546875 13.781250q0.000000 6.062500 -3.468750 10.234375q-3.468750 4.171875 -9.859375 5.781250"/>
</defs>
<g style="fill: #000000; opacity: 1.000000" transform="translate(58.037500,48.467187)scale(0.120000)">
<use xlink:href="#c_3dcfa38a02242cb63ec6726c6e70be7a"/>
<use xlink:href="#c_7a2040fe3b94fcd41d0a72c84e93b115" x="63.623047"/>
</g>
</g>
</g>
<g id="text16">
<defs>
<path id="c_8e0810ad13fe20a2a87a2619799b154d" d="M44.281250 -53.078125l0.000000 8.500000q-3.796875 -1.953125 -7.906250 -2.921875q-4.093750 -0.984375 -8.500000 -0.984375q-6.687500 0.000000 -10.031250 2.046875q-3.343750 2.046875 -3.343750 6.156250q0.000000 3.125000 2.390625 4.906250q2.390625 1.781250 9.625000 3.390625l3.078125 0.687500q9.562500 2.046875 13.593750 5.781250q4.031250 3.734375 4.031250 10.421875q0.000000 7.625000 -6.031250 12.078125q-6.031250 4.437500 -16.578125 4.437500q-4.390625 0.000000 -9.156250 -0.859375q-4.765625 -0.859375 -10.031250 -2.562500l0.000000 -9.281250q4.984375 2.593750 9.812500 3.890625q4.828125 1.281250 9.578125 1.281250q6.343750 0.000000 9.750000 -2.171875q3.421875 -2.171875 3.421875 -6.125000q0.000000 -3.656250 -2.468750 -5.609375q-2.453125 -1.953125 -10.812500 -3.765625l-3.125000 -0.734375q-8.343750 -1.750000 -12.062500 -5.390625q-3.703125 -3.640625 -3.703125 -9.984375q0.000000 -7.718750 5.468750 -11.906250q5.468750 -4.203125 15.531250 -4.203125q4.968750 0.000000 9.359375 0.734375q4.406250 0.718750 8.109375 2.187500"/>
<path id="c_01d93a582460e35a7945ca50d148ffeb" d="M34.281250 -27.484375q-10.890625 0.000000 -15.093750 2.484375q-4.203125 2.484375 -4.203125 8.500000q0.000000 4.781250 3.156250 7.593750q3.156250 2.796875 8.562500 2.796875q7.484375 0.000000 12.000000 -5.296875q4.515625 -5.296875 4.515625 -14.078125l0.000000 -2.000000zM52.203125 -31.203125l0.000000 31.203125l-8.984375 0.000000l0.000000 -8.296875q-3.078125 4.968750 -7.671875 7.343750q-4.593750 2.375000 -11.234375 2.375000q-8.390625 0.000000 -13.359375 -4.718750q-4.953125 -4.718750 -4.953125 -12.625000q0.000000 -9.218750 6.171875 -13.906250q6.187500 -4.687500 18.437500 -4.687500l12.609375 0.000000l0.000000 -0.890625q0.000000 -6.203125 -4.078125 -9.593750q-4.078125 -3.390625 -11.453125 -3.390625q-4.687500 0.000000 -9.140625 1.125000q-4.437500 1.125000 -8.531250 3.375000l0.000000 -8.312500q4.921875 -1.906250 9.562500 -2.843750q4.640625 -0.953125 9.031250 -0.953125q11.875000 0.000000 17.734375 6.156250q5.859375 6.140625 5.859375 18.640625"/>
</defs>
<g style="fill: #000000; opacity: 1.000000" transform="translate(51.209375,234.882812)rotate(-90.0)scale(0.120000)">
<use xlink:href="#c_8e0810ad13fe20a2a87a2619799b154d"/>
<use xlink:href="#c_0f8c41144cfbf448378cb6fd1cc8e549" x="52.099609"/>
<use xlink:href="#c_01d93a582460e35a7945ca50d148ffeb" x="91.308594"/>
<use xlink:href="#c_0f8c41144cfbf448378cb6fd1cc8e549" x="152.587891"/>
<use xlink:href="#c_0bce5afba2dc6b9024b26277c38ad8e8" x="191.796875"/>
</g>
</g>
</g>
<g id="patch3">
<path style="fill: none; stroke: #000000; stroke-width: 1.000000; stroke-linejoin: round; stroke-linecap: square;  opacity: 1.000000"  d="M75.600000 44.100000L544.320000 44.100000"/>
</g>
<g id="patch4">
<path style="fill: none; stroke: #000000; stroke-width: 1.000000; stroke-linejoin: round; stroke-linecap: square;  opacity: 1.000000"  d="M544.320000 396.900000L544.320000 44.100000"/>
</g>
<g id="patch5">
<path style="fill: none; stroke: #000000; stroke-width: 1.000000; stroke-linejoin: round; stroke-linecap: square;  opacity: 1.000000"  d="M75.600000 396.900000L544.320000 396.900000"/>
</g>
<g id="patch6">
<path style="fill: none; stroke: #000000; stroke-width: 1.000000; stroke-linejoin: round; stroke-linecap: square;  opacity: 1.000000"  d="M75.600000 396.900000L75.600000 44.100000"/>
</g>
<g id="text17">
<defs>
<path id="c_518d586bee075aa0153eaebfcb5ab11f" d="M19.671875 -64.796875l0.000000 27.390625l12.406250 0.000000q6.890625 0.000000 10.640625 -3.562500q3.765625 -3.562500 3.765625 -10.156250q0.000000 -6.546875 -3.765625 -10.109375q-3.750000 -3.562500 -10.640625 -3.562500zM9.812500 -72.906250l22.265625 0.000000q12.265625 0.000000 18.531250 5.546875q6.281250 5.546875 6.281250 16.234375q0.000000 10.796875 -6.281250 16.312500q-6.265625 5.515625 -18.531250 5.515625l-12.406250 0.000000l0.000000 29.296875l-9.859375 0.000000z"/>
<path id="c_fe791a90f5471e2ab20a5ed41a7fa451" d="M54.890625 -33.015625l0.000000 33.015625l-8.984375 0.000000l0.000000 -32.718750q0.000000 -7.765625 -3.031250 -11.609375q-3.031250 -3.859375 -9.078125 -3.859375q-7.281250 0.000000 -11.484375 4.640625q-4.203125 4.625000 -4.203125 12.640625l0.000000 30.906250l-9.031250 0.000000l0.000000 -54.687500l9.031250 0.000000l0.000000 8.500000q3.234375 -4.937500 7.593750 -7.375000q4.375000 -2.437500 10.093750 -2.437500q9.421875 0.000000 14.250000 5.828125q4.843750 5.828125 4.843750 17.156250"/>
<path id="c_d821beae607506e87470f334d9ff47af" d="M45.406250 -46.390625l0.000000 -29.593750l8.984375 0.000000l0.000000 75.984375l-8.984375 0.000000l0.000000 -8.203125q-2.828125 4.875000 -7.156250 7.250000q-4.312500 2.375000 -10.375000 2.375000q-9.906250 0.000000 -16.140625 -7.906250q-6.218750 -7.921875 -6.218750 -20.812500q0.000000 -12.890625 6.218750 -20.796875q6.234375 -7.906250 16.140625 -7.906250q6.062500 0.000000 10.375000 2.375000q4.328125 2.359375 7.156250 7.234375M14.796875 -27.296875q0.000000 9.906250 4.078125 15.546875q4.078125 5.640625 11.203125 5.640625q7.125000 0.000000 11.218750 -5.640625q4.109375 -5.640625 4.109375 -15.546875q0.000000 -9.906250 -4.109375 -15.546875q-4.093750 -5.640625 -11.218750 -5.640625q-7.125000 0.000000 -11.203125 5.640625q-4.078125 5.640625 -4.078125 15.546875"/>
<path id="c_3b515ad41f960e225ec85275856806ca" d="M8.500000 -21.578125l0.000000 -33.109375l8.984375 0.000000l0.000000 32.765625q0.000000 7.765625 3.015625 11.656250q3.031250 3.875000 9.093750 3.875000q7.265625 0.000000 11.484375 -4.640625q4.234375 -4.640625 4.234375 -12.656250l0.000000 -31.000000l8.984375 0.000000l0.000000 54.687500l-8.984375 0.000000l0.000000 -8.406250q-3.265625 4.984375 -7.593750 7.406250q-4.312500 2.421875 -10.031250 2.421875q-9.421875 0.000000 -14.312500 -5.859375q-4.875000 -5.859375 -4.875000 -17.140625M31.109375 -56.000000z"/>
<path id="c_5099edb83619131346ae654950954dea" d="M9.421875 -75.984375l8.984375 0.000000l0.000000 75.984375l-8.984375 0.000000z"/>
</defs>
<g style="fill: #000000; opacity: 1.000000" transform="translate(275.538125,38.896875)scale(0.144000)">
<use xlink:href="#c_518d586bee075aa0153eaebfcb5ab11f"/>
<use xlink:href="#c_0bce5afba2dc6b9024b26277c38ad8e8" x="56.677734"/>
<use xlink:href="#c_fe791a90f5471e2ab20a5ed41a7fa451" x="118.201172"/>
<use xlink:href="#c_d821beae607506e87470f334d9ff47af" x="181.580078"/>
<use xlink:href="#c_3b515ad41f960e225ec85275856806ca" x="245.056641"/>
<use xlink:href="#c_5099edb83619131346ae654950954dea" x="308.435547"/>
<use xlink:href="#c_3b515ad41f960e225ec85275856806ca" x="336.218750"/>
<use xlink:href="#c_4653c6dfde66c7610eae0911760d3490" x="399.597656"/>
</g>
</g>
</g>
</g>
</svg>
