<?xml version="1.0" standalone="no"?>
<!DOCTYPE svg PUBLIC "-//W3C//DTD SVG 1.1//EN"
  "http://www.w3.org/Graphics/SVG/1.1/DTD/svg11.dtd">
<!-- Created with matplotlib (http://matplotlib.sourceforge.net/) -->
<svg width="585pt" height="441pt" viewBox="0 0 585 441"
   xmlns="http://www.w3.org/2000/svg"
   xmlns:xlink="http://www.w3.org/1999/xlink"
   version="1.1"
   id="svg1">
<g id="figure1">
<g id="patch1">
<path style="fill: #ffffff; stroke: #ffffff; stroke-width: 1.000000; stroke-linejoin: round; stroke-linecap: square;  opacity: 1.000000"  d="M0.000000 441.000000L585.000000 441.000000L585.000000 0.000000
L0.000000 0.000000L0.000000 441.000000"/>
</g>
<g id="axes1">
<g id="patch2">
<path style="fill: #ffffff; opacity: 1.000000"  d="M73.125000 396.900000L526.500000 396.900000L526.500000 44.100000
L73.125000 44.100000L73.125000 396.900000"/>
</g>
<g id="line2d1">
<defs>
  <clipPath id="pc3c5e41676658680e7b95047b5791c8e">
<rect x="73.125000" y="44.100000" width="453.375000" height="352.800000"/>
  </clipPath>
</defs><path style="fill: none; stroke: #0000ff; stroke-width: 1.000000; stroke-linejoin: round; stroke-linecap: square;  opacity: 1.000000" clip-path="url(#pc3c5e41676658680e7b95047b5791c8e)" d="M73.125000 165.082306L75.391875 165.514923L77.658750 166.812641
L79.925625 168.974288L82.192500 171.995334L84.459375 175.864049
L86.726251 180.556391L91.260000 192.218383L95.793750 206.325410
L108.467643 248.208847L113.001393 235.313671L126.769590 193.228225
L131.303340 182.641662L133.570215 178.453311L135.837090 175.067416
L138.103966 172.511373L140.370840 170.800834L142.637715 169.943812
L144.904591 169.943573L147.171467 170.800118L149.438339 172.510184
L151.705215 175.065764L153.972090 178.451209L156.238966 182.639134
L160.772714 193.224944L165.306468 206.191278L178.907716 247.768454
L181.342773 242.597345L185.876523 229.987029L195.866614 200.837786
L200.400364 189.745698L204.934113 181.271855L207.200989 178.173020
L209.467864 175.879553L211.734739 174.410414L214.001614 173.775933
L216.268490 173.980130L218.535365 175.021743L220.802238 176.893888
L223.069114 179.582402L225.335989 183.062949L229.869740 192.229080
L234.403489 203.849083L250.090745 248.208847L254.624495 237.531113
L263.122207 214.136665L267.655957 202.019499L272.189707 191.606637
L276.723456 183.693479L278.990332 180.832052L281.257208 178.750058
L283.524082 177.468411L285.790957 176.998610L288.057833 177.344609
L290.324708 178.503508L292.591581 180.465044L294.858457 183.209902
L297.125332 186.707030L301.659083 195.755473L306.192832 207.007866
L319.794085 243.658425L321.835332 248.208847L326.369082 238.476604
L333.169707 221.074418L340.185973 203.034925L344.719723 193.203879
L349.253473 185.765102L351.520348 183.100280L353.787224 181.189273
L356.054098 180.054064L358.320973 179.706651L360.587849 180.150544
L362.854724 181.381246L365.121597 183.385637L367.388473 186.140369
L369.655348 189.609451L374.189099 198.466917L378.722848 209.321505
L390.057223 238.620584L394.529976 248.208847L399.063726 239.327675
L403.597476 228.709478L413.668568 203.902748L418.202317 194.567663
L422.736067 187.529092L425.002943 185.027100L427.269818 183.254705
L429.536692 182.234425L431.803568 181.978373L434.070443 182.489491
L436.337319 183.761869L438.604192 185.780104L440.871067 188.517815
L443.137943 191.935500L447.671694 200.573462L452.205442 211.039869
L463.539817 238.781372L468.073568 247.778568L470.589694 244.421924
L475.123445 235.310748L483.709540 215.038349L488.243290 204.640338
L492.777040 195.725901L497.310790 189.023874L499.577665 186.656685
L501.844541 184.996913L504.111415 184.067273L506.378291 183.879793
L508.645166 184.436839L510.912042 185.731324L513.178915 187.746084
L515.445790 190.452505L519.979541 197.757317L524.513290 207.118626
L526.500000 211.674407L526.500000 211.674407"/>
</g>
<g id="line2d2">
<path style="fill: none; stroke: #008000; stroke-width: 1.000000; stroke-linejoin: round; stroke-linecap: square;  opacity: 1.000000" clip-path="url(#pc3c5e41676658680e7b95047b5791c8e)" d="M73.125000 220.500000L86.726251 322.337680L91.260000 350.827888
L93.526876 362.044164L95.793750 370.419896L98.060626 375.427192
L100.327501 376.721507L102.594377 374.210156L104.861249 368.071598
L108.467643 351.907693L108.467643 102.233076L110.734518 91.114836
L113.001393 82.592729L115.268268 77.146875L117.535143 75.114460
L119.968965 76.877806L122.235840 82.081485L124.502715 90.392097
L126.769590 101.337495L131.303340 128.968823L138.103966 177.797021
L156.238966 312.022828L160.772714 339.655877L163.039590 350.602562
L165.306468 358.914730L167.573341 364.120161L169.840214 365.895061
L172.107092 364.123897L174.373965 358.922048L176.640843 350.613083
L178.907716 339.669073L179.075898 114.059765L181.342773 102.828590
L183.609648 93.932154L185.876523 87.817746L188.143398 84.826483
L191.332864 86.209145L193.599739 91.085356L195.866614 98.898970
L198.133489 109.238024L202.667239 135.573925L209.467864 182.826981
L225.335989 297.803559L229.869740 325.629921L232.136613 337.080754
L234.403489 346.247731L236.670367 352.676210L238.937240 356.010784
L241.204113 356.054705L243.470991 352.805407L245.737864 346.454830
L248.004742 337.354798L250.090745 326.940360L250.090745 124.703676
L252.357620 113.371710L254.624495 104.143098L256.891370 97.435455
L259.158245 93.588422L260.855332 92.712388L263.122207 94.271936
L265.389082 98.863467L267.655957 106.240721L269.922832 116.039122
L274.456582 141.176883L281.257208 186.811189L297.125332 297.686548
L301.659083 323.287888L303.925956 333.417325L306.192832 341.187921
L308.459710 346.221794L310.726583 348.251568L312.993456 347.164257
L315.260334 343.020769L317.527207 336.045368L319.794085 326.587934
L321.835332 316.296803L321.835332 134.282877L324.102207 122.860901
L326.369082 113.337317L328.635957 106.103313L330.902832 101.493827
L333.169707 99.740434L335.652223 101.201378L337.919098 105.547071
L340.185973 112.544540L342.452848 121.866701L346.986598 145.919573
L351.520348 174.649594L369.655348 296.710792L374.189099 320.382607
L376.455972 329.441067L378.722848 336.130696L380.989726 340.135176
L383.256599 341.250779L385.523472 339.418804L387.790350 334.735227
L390.057223 327.434955L392.324101 317.855041L394.529976 306.717342
L394.529976 142.904392L399.063726 121.616249L401.330601 113.915128
L403.597476 108.626976L405.864351 105.998571L406.867942 105.722879
L409.134817 107.124377L411.401692 111.259092L413.668568 117.928559
L415.935442 126.835460L420.469193 149.922208L425.002943 177.661898
L443.137943 295.315000L447.671694 317.355484L449.938567 325.555295
L452.205442 331.410179L454.472321 334.651547L456.739193 335.121190
L459.006066 332.795648L461.272944 327.789828L463.539817 320.339146
L465.806696 310.764992L468.322819 298.095777L468.322819 150.663801
L472.856569 129.070594L475.123445 120.954803L477.390319 115.062961
L479.657194 111.651948L481.442665 110.819578L483.709540 112.159096
L485.976415 116.113900L488.243290 122.502239L490.510165 131.050521
L495.043916 153.289211L499.577665 180.135283L517.712666 293.766057
L522.246417 314.446275L524.513290 321.960130L526.500000 326.658626
L526.500000 326.658626"/>
</g>
<g id="matplotlib.axis1">
<g id="xtick1">
<g id="line2d3">
<defs><path id="m30e32995789d870ad79a2e54c91cf9c6" d="M0.000000 0.000000L0.000000 -4.000000"/></defs>
<g ><use style="fill: none; stroke: #000000; stroke-width: 0.500000; stroke-linejoin: round; stroke-linecap: butt;  opacity: 1.000000" xlink:href="#m30e32995789d870ad79a2e54c91cf9c6" x="73.125000" y="396.900000"/>
</g></g>
<g id="line2d4">
<defs><path id="m9281cae24120827b11d5ea8a7ad3e96b" d="M0.000000 0.000000L0.000000 4.000000"/></defs>
<g ><use style="fill: none; stroke: #000000; stroke-width: 0.500000; stroke-linejoin: round; stroke-linecap: butt;  opacity: 1.000000" xlink:href="#m9281cae24120827b11d5ea8a7ad3e96b" x="73.125000" y="44.100000"/>
</g></g>
<g id="text1">
<defs>
<path id="c_7a2040fe3b94fcd41d0a72c84e93b115" d="M31.781250 -66.406250q-7.609375 0.000000 -11.453125 7.500000q-3.828125 7.484375 -3.828125 22.531250q0.000000 14.984375 3.828125 22.484375q3.843750 7.500000 11.453125 7.500000q7.671875 0.000000 11.500000 -7.500000q3.843750 -7.500000 3.843750 -22.484375q0.000000 -15.046875 -3.843750 -22.531250q-3.828125 -7.500000 -11.500000 -7.500000M31.781250 -74.218750q12.265625 0.000000 18.734375 9.703125q6.468750 9.687500 6.468750 28.140625q0.000000 18.406250 -6.468750 28.109375q-6.468750 9.687500 -18.734375 9.687500q-12.250000 0.000000 -18.718750 -9.687500q-6.468750 -9.703125 -6.468750 -28.109375q0.000000 -18.453125 6.468750 -28.140625q6.468750 -9.703125 18.718750 -9.703125"/>
</defs>
<g style="fill: #000000; opacity: 1.000000" transform="translate(70.101562,409.806250)scale(0.120000)">
<use xlink:href="#c_7a2040fe3b94fcd41d0a72c84e93b115"/>
</g>
</g>
</g>
<g id="xtick2">
<g id="line2d5">
<g ><use style="fill: none; stroke: #000000; stroke-width: 0.500000; stroke-linejoin: round; stroke-linecap: butt;  opacity: 1.000000" xlink:href="#m30e32995789d870ad79a2e54c91cf9c6" x="163.800000" y="396.900000"/>
</g></g>
<g id="line2d6">
<g ><use style="fill: none; stroke: #000000; stroke-width: 0.500000; stroke-linejoin: round; stroke-linecap: butt;  opacity: 1.000000" xlink:href="#m9281cae24120827b11d5ea8a7ad3e96b" x="163.800000" y="44.100000"/>
</g></g>
<g id="text2">
<defs>
<path id="c_ed3f3ed3ebfbd18bcb9c012009a68ad1" d="M19.187500 -8.296875l34.421875 0.000000l0.000000 8.296875l-46.281250 0.000000l0.000000 -8.296875q5.609375 -5.812500 15.296875 -15.593750q9.703125 -9.796875 12.187500 -12.640625q4.734375 -5.312500 6.609375 -9.000000q1.890625 -3.687500 1.890625 -7.250000q0.000000 -5.812500 -4.078125 -9.468750q-4.078125 -3.671875 -10.625000 -3.671875q-4.640625 0.000000 -9.796875 1.609375q-5.140625 1.609375 -11.000000 4.890625l0.000000 -9.968750q5.953125 -2.390625 11.125000 -3.609375q5.187500 -1.218750 9.484375 -1.218750q11.328125 0.000000 18.062500 5.671875q6.734375 5.656250 6.734375 15.125000q0.000000 4.500000 -1.687500 8.531250q-1.671875 4.015625 -6.125000 9.484375q-1.218750 1.421875 -7.765625 8.187500q-6.531250 6.765625 -18.453125 18.921875"/>
</defs>
<g style="fill: #000000; opacity: 1.000000" transform="translate(161.018750,409.806250)scale(0.120000)">
<use xlink:href="#c_ed3f3ed3ebfbd18bcb9c012009a68ad1"/>
</g>
</g>
</g>
<g id="xtick3">
<g id="line2d7">
<g ><use style="fill: none; stroke: #000000; stroke-width: 0.500000; stroke-linejoin: round; stroke-linecap: butt;  opacity: 1.000000" xlink:href="#m30e32995789d870ad79a2e54c91cf9c6" x="254.475000" y="396.900000"/>
</g></g>
<g id="line2d8">
<g ><use style="fill: none; stroke: #000000; stroke-width: 0.500000; stroke-linejoin: round; stroke-linecap: butt;  opacity: 1.000000" xlink:href="#m9281cae24120827b11d5ea8a7ad3e96b" x="254.475000" y="44.100000"/>
</g></g>
<g id="text3">
<defs>
<path id="c_a0416418d96557a09b8c1332d34883ba" d="M37.796875 -64.312500l-24.906250 38.921875l24.906250 0.000000zM35.203125 -72.906250l12.406250 0.000000l0.000000 47.515625l10.406250 0.000000l0.000000 8.203125l-10.406250 0.000000l0.000000 17.187500l-9.812500 0.000000l0.000000 -17.187500l-32.906250 0.000000l0.000000 -9.515625z"/>
</defs>
<g style="fill: #000000; opacity: 1.000000" transform="translate(251.287500,409.650000)scale(0.120000)">
<use xlink:href="#c_a0416418d96557a09b8c1332d34883ba"/>
</g>
</g>
</g>
<g id="xtick4">
<g id="line2d9">
<g ><use style="fill: none; stroke: #000000; stroke-width: 0.500000; stroke-linejoin: round; stroke-linecap: butt;  opacity: 1.000000" xlink:href="#m30e32995789d870ad79a2e54c91cf9c6" x="345.150000" y="396.900000"/>
</g></g>
<g id="line2d10">
<g ><use style="fill: none; stroke: #000000; stroke-width: 0.500000; stroke-linejoin: round; stroke-linecap: butt;  opacity: 1.000000" xlink:href="#m9281cae24120827b11d5ea8a7ad3e96b" x="345.150000" y="44.100000"/>
</g></g>
<g id="text4">
<defs>
<path id="c_cc8d6d580d1b10c8632f7a42cd53db8a" d="M33.015625 -40.375000q-6.640625 0.000000 -10.531250 4.546875q-3.875000 4.531250 -3.875000 12.437500q0.000000 7.859375 3.875000 12.437500q3.890625 4.562500 10.531250 4.562500q6.640625 0.000000 10.515625 -4.562500q3.875000 -4.578125 3.875000 -12.437500q0.000000 -7.906250 -3.875000 -12.437500q-3.875000 -4.546875 -10.515625 -4.546875M52.593750 -71.296875l0.000000 8.984375q-3.718750 -1.750000 -7.500000 -2.671875q-3.781250 -0.937500 -7.500000 -0.937500q-9.765625 0.000000 -14.921875 6.593750q-5.140625 6.593750 -5.875000 19.921875q2.875000 -4.250000 7.218750 -6.515625q4.359375 -2.265625 9.578125 -2.265625q10.984375 0.000000 17.359375 6.671875q6.375000 6.656250 6.375000 18.125000q0.000000 11.234375 -6.640625 18.031250q-6.640625 6.781250 -17.671875 6.781250q-12.656250 0.000000 -19.343750 -9.687500q-6.687500 -9.703125 -6.687500 -28.109375q0.000000 -17.281250 8.203125 -27.562500q8.203125 -10.281250 22.015625 -10.281250q3.718750 0.000000 7.500000 0.734375q3.781250 0.734375 7.890625 2.187500"/>
</defs>
<g style="fill: #000000; opacity: 1.000000" transform="translate(342.134375,409.806250)scale(0.120000)">
<use xlink:href="#c_cc8d6d580d1b10c8632f7a42cd53db8a"/>
</g>
</g>
</g>
<g id="xtick5">
<g id="line2d11">
<g ><use style="fill: none; stroke: #000000; stroke-width: 0.500000; stroke-linejoin: round; stroke-linecap: butt;  opacity: 1.000000" xlink:href="#m30e32995789d870ad79a2e54c91cf9c6" x="435.825000" y="396.900000"/>
</g></g>
<g id="line2d12">
<g ><use style="fill: none; stroke: #000000; stroke-width: 0.500000; stroke-linejoin: round; stroke-linecap: butt;  opacity: 1.000000" xlink:href="#m9281cae24120827b11d5ea8a7ad3e96b" x="435.825000" y="44.100000"/>
</g></g>
<g id="text5">
<defs>
<path id="c_bef35738d52871942e50b9de9b122bab" d="M31.781250 -34.625000q-7.031250 0.000000 -11.062500 3.765625q-4.015625 3.765625 -4.015625 10.343750q0.000000 6.593750 4.015625 10.359375q4.031250 3.765625 11.062500 3.765625q7.031250 0.000000 11.078125 -3.781250q4.062500 -3.796875 4.062500 -10.343750q0.000000 -6.578125 -4.031250 -10.343750q-4.015625 -3.765625 -11.109375 -3.765625M21.921875 -38.812500q-6.343750 -1.562500 -9.890625 -5.906250q-3.531250 -4.359375 -3.531250 -10.609375q0.000000 -8.734375 6.218750 -13.812500q6.234375 -5.078125 17.062500 -5.078125q10.890625 0.000000 17.093750 5.078125q6.203125 5.078125 6.203125 13.812500q0.000000 6.250000 -3.546875 10.609375q-3.531250 4.343750 -9.828125 5.906250q7.125000 1.656250 11.093750 6.500000q3.984375 4.828125 3.984375 11.796875q0.000000 10.609375 -6.468750 16.281250q-6.468750 5.656250 -18.531250 5.656250q-12.046875 0.000000 -18.531250 -5.656250q-6.468750 -5.671875 -6.468750 -16.281250q0.000000 -6.968750 4.000000 -11.796875q4.015625 -4.843750 11.140625 -6.500000M18.312500 -54.390625q0.000000 5.656250 3.531250 8.828125q3.546875 3.171875 9.937500 3.171875q6.359375 0.000000 9.937500 -3.171875q3.593750 -3.171875 3.593750 -8.828125q0.000000 -5.671875 -3.593750 -8.843750q-3.578125 -3.171875 -9.937500 -3.171875q-6.390625 0.000000 -9.937500 3.171875q-3.531250 3.171875 -3.531250 8.843750"/>
</defs>
<g style="fill: #000000; opacity: 1.000000" transform="translate(432.825000,409.806250)scale(0.120000)">
<use xlink:href="#c_bef35738d52871942e50b9de9b122bab"/>
</g>
</g>
</g>
<g id="xtick6">
<g id="line2d13">
<g ><use style="fill: none; stroke: #000000; stroke-width: 0.500000; stroke-linejoin: round; stroke-linecap: butt;  opacity: 1.000000" xlink:href="#m30e32995789d870ad79a2e54c91cf9c6" x="526.500000" y="396.900000"/>
</g></g>
<g id="line2d14">
<g ><use style="fill: none; stroke: #000000; stroke-width: 0.500000; stroke-linejoin: round; stroke-linecap: butt;  opacity: 1.000000" xlink:href="#m9281cae24120827b11d5ea8a7ad3e96b" x="526.500000" y="44.100000"/>
</g></g>
<g id="text6">
<defs>
<path id="c_42baa63129a918535c52adb20d687ea7" d="M12.406250 -8.296875l16.109375 0.000000l0.000000 -55.625000l-17.531250 3.515625l0.000000 -8.984375l17.437500 -3.515625l9.859375 0.000000l0.000000 64.609375l16.109375 0.000000l0.000000 8.296875l-41.984375 0.000000z"/>
</defs>
<g style="fill: #000000; opacity: 1.000000" transform="translate(519.914062,409.806250)scale(0.120000)">
<use xlink:href="#c_42baa63129a918535c52adb20d687ea7"/>
<use xlink:href="#c_7a2040fe3b94fcd41d0a72c84e93b115" x="63.623047"/>
</g>
</g>
</g>
<g id="text7">
<defs>
<path id="c_0f8c41144cfbf448378cb6fd1cc8e549" d="M18.312500 -70.218750l0.000000 15.531250l18.500000 0.000000l0.000000 6.984375l-18.500000 0.000000l0.000000 29.687500q0.000000 6.687500 1.828125 8.593750q1.828125 1.906250 7.453125 1.906250l9.218750 0.000000l0.000000 7.515625l-9.218750 0.000000q-10.406250 0.000000 -14.359375 -3.875000q-3.953125 -3.890625 -3.953125 -14.140625l0.000000 -29.687500l-6.593750 0.000000l0.000000 -6.984375l6.593750 0.000000l0.000000 -15.531250z"/>
<path id="c_6a63bda47b2f3da1cec6aadd80692cfe" d="M9.421875 -54.687500l8.984375 0.000000l0.000000 54.687500l-8.984375 0.000000zM9.421875 -75.984375l8.984375 0.000000l0.000000 11.390625l-8.984375 0.000000z"/>
<path id="c_4653c6dfde66c7610eae0911760d3490" d="M52.000000 -44.187500q3.375000 -6.062500 8.062500 -8.937500q4.687500 -2.875000 11.031250 -2.875000q8.546875 0.000000 13.187500 5.984375q4.640625 5.968750 4.640625 17.000000l0.000000 33.015625l-9.031250 0.000000l0.000000 -32.718750q0.000000 -7.859375 -2.796875 -11.656250q-2.781250 -3.812500 -8.484375 -3.812500q-6.984375 0.000000 -11.046875 4.640625q-4.046875 4.625000 -4.046875 12.640625l0.000000 30.906250l-9.031250 0.000000l0.000000 -32.718750q0.000000 -7.906250 -2.781250 -11.687500q-2.781250 -3.781250 -8.593750 -3.781250q-6.890625 0.000000 -10.953125 4.656250q-4.046875 4.656250 -4.046875 12.625000l0.000000 30.906250l-9.031250 0.000000l0.000000 -54.687500l9.031250 0.000000l0.000000 8.500000q3.078125 -5.031250 7.375000 -7.421875q4.296875 -2.390625 10.203125 -2.390625q5.968750 0.000000 10.140625 3.031250q4.171875 3.015625 6.171875 8.781250"/>
<path id="c_0bce5afba2dc6b9024b26277c38ad8e8" d="M56.203125 -29.593750l0.000000 4.390625l-41.312500 0.000000q0.593750 9.281250 5.593750 14.140625q5.000000 4.859375 13.937500 4.859375q5.171875 0.000000 10.031250 -1.265625q4.859375 -1.265625 9.656250 -3.812500l0.000000 8.500000q-4.843750 2.046875 -9.921875 3.125000q-5.078125 1.078125 -10.296875 1.078125q-13.093750 0.000000 -20.734375 -7.609375q-7.640625 -7.625000 -7.640625 -20.625000q0.000000 -13.421875 7.250000 -21.296875q7.250000 -7.890625 19.562500 -7.890625q11.031250 0.000000 17.453125 7.109375q6.421875 7.093750 6.421875 19.296875M47.218750 -32.234375q-0.093750 -7.359375 -4.125000 -11.750000q-4.031250 -4.406250 -10.671875 -4.406250q-7.515625 0.000000 -12.031250 4.250000q-4.515625 4.250000 -5.203125 11.968750z"/>
</defs>
<g style="fill: #000000; opacity: 1.000000" transform="translate(286.742188,424.103125)scale(0.120000)">
<use xlink:href="#c_0f8c41144cfbf448378cb6fd1cc8e549"/>
<use xlink:href="#c_6a63bda47b2f3da1cec6aadd80692cfe" x="39.208984"/>
<use xlink:href="#c_4653c6dfde66c7610eae0911760d3490" x="66.992188"/>
<use xlink:href="#c_0bce5afba2dc6b9024b26277c38ad8e8" x="164.404297"/>
</g>
</g>
</g>
<g id="matplotlib.axis2">
<g id="ytick1">
<g id="line2d15">
<defs><path id="m3400efa6b1638b3fea9e19e898273957" d="M0.000000 0.000000L4.000000 0.000000"/></defs>
<g ><use style="fill: none; stroke: #000000; stroke-width: 0.500000; stroke-linejoin: round; stroke-linecap: butt;  opacity: 1.000000" xlink:href="#m3400efa6b1638b3fea9e19e898273957" x="73.125000" y="361.620000"/>
</g></g>
<g id="line2d16">
<defs><path id="m20b58b2501143cb5e0a5e8f1ef6f1643" d="M0.000000 0.000000L-4.000000 0.000000"/></defs>
<g ><use style="fill: none; stroke: #000000; stroke-width: 0.500000; stroke-linejoin: round; stroke-linecap: butt;  opacity: 1.000000" xlink:href="#m20b58b2501143cb5e0a5e8f1ef6f1643" x="526.500000" y="361.620000"/>
</g></g>
<g id="text8">
<defs>
<path id="c_6a8d56c819c37117ab4cf023bec22a5a" d="M10.593750 -35.500000l62.593750 0.000000l0.000000 8.296875l-62.593750 0.000000z"/>
</defs>
<g style="fill: #000000; opacity: 1.000000" transform="translate(53.359375,365.995000)scale(0.120000)">
<use xlink:href="#c_6a8d56c819c37117ab4cf023bec22a5a"/>
<use xlink:href="#c_a0416418d96557a09b8c1332d34883ba" x="83.789062"/>
</g>
</g>
</g>
<g id="ytick2">
<g id="line2d17">
<g ><use style="fill: none; stroke: #000000; stroke-width: 0.500000; stroke-linejoin: round; stroke-linecap: butt;  opacity: 1.000000" xlink:href="#m3400efa6b1638b3fea9e19e898273957" x="73.125000" y="291.060000"/>
</g></g>
<g id="line2d18">
<g ><use style="fill: none; stroke: #000000; stroke-width: 0.500000; stroke-linejoin: round; stroke-linecap: butt;  opacity: 1.000000" xlink:href="#m20b58b2501143cb5e0a5e8f1ef6f1643" x="526.500000" y="291.060000"/>
</g></g>
<g id="text9">
<g style="fill: #000000; opacity: 1.000000" transform="translate(53.890625,295.513125)scale(0.120000)">
<use xlink:href="#c_6a8d56c819c37117ab4cf023bec22a5a"/>
<use xlink:href="#c_ed3f3ed3ebfbd18bcb9c012009a68ad1" x="83.789062"/>
</g>
</g>
</g>
<g id="ytick3">
<g id="line2d19">
<g ><use style="fill: none; stroke: #000000; stroke-width: 0.500000; stroke-linejoin: round; stroke-linecap: butt;  opacity: 1.000000" xlink:href="#m3400efa6b1638b3fea9e19e898273957" x="73.125000" y="220.500000"/>
</g></g>
<g id="line2d20">
<g ><use style="fill: none; stroke: #000000; stroke-width: 0.500000; stroke-linejoin: round; stroke-linecap: butt;  opacity: 1.000000" xlink:href="#m20b58b2501143cb5e0a5e8f1ef6f1643" x="526.500000" y="220.500000"/>
</g></g>
<g id="text10">
<g style="fill: #000000; opacity: 1.000000" transform="translate(63.078125,224.867187)scale(0.120000)">
<use xlink:href="#c_7a2040fe3b94fcd41d0a72c84e93b115"/>
</g>
</g>
</g>
<g id="ytick4">
<g id="line2d21">
<g ><use style="fill: none; stroke: #000000; stroke-width: 0.500000; stroke-linejoin: round; stroke-linecap: butt;  opacity: 1.000000" xlink:href="#m3400efa6b1638b3fea9e19e898273957" x="73.125000" y="149.940000"/>
</g></g>
<g id="line2d22">
<g ><use style="fill: none; stroke: #000000; stroke-width: 0.500000; stroke-linejoin: round; stroke-linecap: butt;  opacity: 1.000000" xlink:href="#m20b58b2501143cb5e0a5e8f1ef6f1643" x="526.500000" y="149.940000"/>
</g></g>
<g id="text11">
<g style="fill: #000000; opacity: 1.000000" transform="translate(63.562500,154.393125)scale(0.120000)">
<use xlink:href="#c_ed3f3ed3ebfbd18bcb9c012009a68ad1"/>
</g>
</g>
</g>
<g id="ytick5">
<g id="line2d23">
<g ><use style="fill: none; stroke: #000000; stroke-width: 0.500000; stroke-linejoin: round; stroke-linecap: butt;  opacity: 1.000000" xlink:href="#m3400efa6b1638b3fea9e19e898273957" x="73.125000" y="79.380000"/>
</g></g>
<g id="line2d24">
<g ><use style="fill: none; stroke: #000000; stroke-width: 0.500000; stroke-linejoin: round; stroke-linecap: butt;  opacity: 1.000000" xlink:href="#m20b58b2501143cb5e0a5e8f1ef6f1643" x="526.500000" y="79.380000"/>
</g></g>
<g id="text12">
<g style="fill: #000000; opacity: 1.000000" transform="translate(62.750000,83.755000)scale(0.120000)">
<use xlink:href="#c_a0416418d96557a09b8c1332d34883ba"/>
</g>
</g>
</g>
<g id="text13">
<defs>
<path id="c_8e0810ad13fe20a2a87a2619799b154d" d="M44.281250 -53.078125l0.000000 8.500000q-3.796875 -1.953125 -7.906250 -2.921875q-4.093750 -0.984375 -8.500000 -0.984375q-6.687500 0.000000 -10.031250 2.046875q-3.343750 2.046875 -3.343750 6.156250q0.000000 3.125000 2.390625 4.906250q2.390625 1.781250 9.625000 3.390625l3.078125 0.687500q9.562500 2.046875 13.593750 5.781250q4.031250 3.734375 4.031250 10.421875q0.000000 7.625000 -6.031250 12.078125q-6.031250 4.437500 -16.578125 4.437500q-4.390625 0.000000 -9.156250 -0.859375q-4.765625 -0.859375 -10.031250 -2.562500l0.000000 -9.281250q4.984375 2.593750 9.812500 3.890625q4.828125 1.281250 9.578125 1.281250q6.343750 0.000000 9.750000 -2.171875q3.421875 -2.171875 3.421875 -6.125000q0.000000 -3.656250 -2.468750 -5.609375q-2.453125 -1.953125 -10.812500 -3.765625l-3.125000 -0.734375q-8.343750 -1.750000 -12.062500 -5.390625q-3.703125 -3.640625 -3.703125 -9.984375q0.000000 -7.718750 5.468750 -11.906250q5.468750 -4.203125 15.531250 -4.203125q4.968750 0.000000 9.359375 0.734375q4.406250 0.718750 8.109375 2.187500"/>
<path id="c_01d93a582460e35a7945ca50d148ffeb" d="M34.281250 -27.484375q-10.890625 0.000000 -15.093750 2.484375q-4.203125 2.484375 -4.203125 8.500000q0.000000 4.781250 3.156250 7.593750q3.156250 2.796875 8.562500 2.796875q7.484375 0.000000 12.000000 -5.296875q4.515625 -5.296875 4.515625 -14.078125l0.000000 -2.000000zM52.203125 -31.203125l0.000000 31.203125l-8.984375 0.000000l0.000000 -8.296875q-3.078125 4.968750 -7.671875 7.343750q-4.593750 2.375000 -11.234375 2.375000q-8.390625 0.000000 -13.359375 -4.718750q-4.953125 -4.718750 -4.953125 -12.625000q0.000000 -9.218750 6.171875 -13.906250q6.187500 -4.687500 18.437500 -4.687500l12.609375 0.000000l0.000000 -0.890625q0.000000 -6.203125 -4.078125 -9.593750q-4.078125 -3.390625 -11.453125 -3.390625q-4.687500 0.000000 -9.140625 1.125000q-4.437500 1.125000 -8.531250 3.375000l0.000000 -8.312500q4.921875 -1.906250 9.562500 -2.843750q4.640625 -0.953125 9.031250 -0.953125q11.875000 0.000000 17.734375 6.156250q5.859375 6.140625 5.859375 18.640625"/>
</defs>
<g style="fill: #000000; opacity: 1.000000" transform="translate(48.359375,234.882812)rotate(-90.0)scale(0.120000)">
<use xlink:href="#c_8e0810ad13fe20a2a87a2619799b154d"/>
<use xlink:href="#c_0f8c41144cfbf448378cb6fd1cc8e549" x="52.099609"/>
<use xlink:href="#c_01d93a582460e35a7945ca50d148ffeb" x="91.308594"/>
<use xlink:href="#c_0f8c41144cfbf448378cb6fd1cc8e549" x="152.587891"/>
<use xlink:href="#c_0bce5afba2dc6b9024b26277c38ad8e8" x="191.796875"/>
</g>
</g>
</g>
<g id="patch3">
<path style="fill: none; stroke: #000000; stroke-width: 1.000000; stroke-linejoin: round; stroke-linecap: square;  opacity: 1.000000"  d="M73.125000 44.100000L526.500000 44.100000"/>
</g>
<g id="patch4">
<path style="fill: none; stroke: #000000; stroke-width: 1.000000; stroke-linejoin: round; stroke-linecap: square;  opacity: 1.000000"  d="M526.500000 396.900000L526.500000 44.100000"/>
</g>
<g id="patch5">
<path style="fill: none; stroke: #000000; stroke-width: 1.000000; stroke-linejoin: round; stroke-linecap: square;  opacity: 1.000000"  d="M73.125000 396.900000L526.500000 396.900000"/>
</g>
<g id="patch6">
<path style="fill: none; stroke: #000000; stroke-width: 1.000000; stroke-linejoin: round; stroke-linecap: square;  opacity: 1.000000"  d="M73.125000 396.900000L73.125000 44.100000"/>
</g>
<g id="text14">
<defs>
<path id="c_518d586bee075aa0153eaebfcb5ab11f" d="M19.671875 -64.796875l0.000000 27.390625l12.406250 0.000000q6.890625 0.000000 10.640625 -3.562500q3.765625 -3.562500 3.765625 -10.156250q0.000000 -6.546875 -3.765625 -10.109375q-3.750000 -3.562500 -10.640625 -3.562500zM9.812500 -72.906250l22.265625 0.000000q12.265625 0.000000 18.531250 5.546875q6.281250 5.546875 6.281250 16.234375q0.000000 10.796875 -6.281250 16.312500q-6.265625 5.515625 -18.531250 5.515625l-12.406250 0.000000l0.000000 29.296875l-9.859375 0.000000z"/>
<path id="c_fe791a90f5471e2ab20a5ed41a7fa451" d="M54.890625 -33.015625l0.000000 33.015625l-8.984375 0.000000l0.000000 -32.718750q0.000000 -7.765625 -3.031250 -11.609375q-3.031250 -3.859375 -9.078125 -3.859375q-7.281250 0.000000 -11.484375 4.640625q-4.203125 4.625000 -4.203125 12.640625l0.000000 30.906250l-9.031250 0.000000l0.000000 -54.687500l9.031250 0.000000l0.000000 8.500000q3.234375 -4.937500 7.593750 -7.375000q4.375000 -2.437500 10.093750 -2.437500q9.421875 0.000000 14.250000 5.828125q4.843750 5.828125 4.843750 17.156250"/>
<path id="c_d821beae607506e87470f334d9ff47af" d="M45.406250 -46.390625l0.000000 -29.593750l8.984375 0.000000l0.000000 75.984375l-8.984375 0.000000l0.000000 -8.203125q-2.828125 4.875000 -7.156250 7.250000q-4.312500 2.375000 -10.375000 2.375000q-9.906250 0.000000 -16.140625 -7.906250q-6.218750 -7.921875 -6.218750 -20.812500q0.000000 -12.890625 6.218750 -20.796875q6.234375 -7.906250 16.140625 -7.906250q6.062500 0.000000 10.375000 2.375000q4.328125 2.359375 7.156250 7.234375M14.796875 -27.296875q0.000000 9.906250 4.078125 15.546875q4.078125 5.640625 11.203125 5.640625q7.125000 0.000000 11.218750 -5.640625q4.109375 -5.640625 4.109375 -15.546875q0.000000 -9.906250 -4.109375 -15.546875q-4.093750 -5.640625 -11.218750 -5.640625q-7.125000 0.000000 -11.203125 5.640625q-4.078125 5.640625 -4.078125 15.546875"/>
<path id="c_3b515ad41f960e225ec85275856806ca" d="M8.500000 -21.578125l0.000000 -33.109375l8.984375 0.000000l0.000000 32.765625q0.000000 7.765625 3.015625 11.656250q3.031250 3.875000 9.093750 3.875000q7.265625 0.000000 11.484375 -4.640625q4.234375 -4.640625 4.234375 -12.656250l0.000000 -31.000000l8.984375 0.000000l0.000000 54.687500l-8.984375 0.000000l0.000000 -8.406250q-3.265625 4.984375 -7.593750 7.406250q-4.312500 2.421875 -10.031250 2.421875q-9.421875 0.000000 -14.312500 -5.859375q-4.875000 -5.859375 -4.875000 -17.140625M31.109375 -56.000000z"/>
<path id="c_5099edb83619131346ae654950954dea" d="M9.421875 -75.984375l8.984375 0.000000l0.000000 75.984375l-8.984375 0.000000z"/>
<path id="c_d41d8cd98f00b204e9800998ecf8427e" d=""/>
<path id="c_57adaa7083d7229075db8bc2c5b2febe" d="M4.203125 -54.687500l8.984375 0.000000l11.234375 42.671875l11.171875 -42.671875l10.593750 0.000000l11.234375 42.671875l11.187500 -42.671875l8.984375 0.000000l-14.312500 54.687500l-10.593750 0.000000l-11.765625 -44.828125l-11.812500 44.828125l-10.609375 0.000000z"/>
<path id="c_74d54c94aa871ec39e2bc6697dde6c00" d="M54.890625 -33.015625l0.000000 33.015625l-8.984375 0.000000l0.000000 -32.718750q0.000000 -7.765625 -3.031250 -11.609375q-3.031250 -3.859375 -9.078125 -3.859375q-7.281250 0.000000 -11.484375 4.640625q-4.203125 4.625000 -4.203125 12.640625l0.000000 30.906250l-9.031250 0.000000l0.000000 -75.984375l9.031250 0.000000l0.000000 29.796875q3.234375 -4.937500 7.593750 -7.375000q4.375000 -2.437500 10.093750 -2.437500q9.421875 0.000000 14.250000 5.828125q4.843750 5.828125 4.843750 17.156250"/>
<path id="c_c48ceabac27bf136feba2f4bf2716ab6" d="M2.984375 -54.687500l9.515625 0.000000l17.093750 45.890625l17.093750 -45.890625l9.515625 0.000000l-20.515625 54.687500l-12.203125 0.000000z"/>
</defs>
<g style="fill: #000000; opacity: 1.000000" transform="translate(220.375000,38.896875)scale(0.144000)">
<use xlink:href="#c_518d586bee075aa0153eaebfcb5ab11f"/>
<use xlink:href="#c_0bce5afba2dc6b9024b26277c38ad8e8" x="56.677734"/>
<use xlink:href="#c_fe791a90f5471e2ab20a5ed41a7fa451" x="118.201172"/>
<use xlink:href="#c_d821beae607506e87470f334d9ff47af" x="181.580078"/>
<use xlink:href="#c_3b515ad41f960e225ec85275856806ca" x="245.056641"/>
<use xlink:href="#c_5099edb83619131346ae654950954dea" x="308.435547"/>
<use xlink:href="#c_3b515ad41f960e225ec85275856806ca" x="336.218750"/>
<use xlink:href="#c_4653c6dfde66c7610eae0911760d3490" x="399.597656"/>
<use xlink:href="#c_d41d8cd98f00b204e9800998ecf8427e" x="497.009766"/>
<use xlink:href="#c_57adaa7083d7229075db8bc2c5b2febe" x="528.796875"/>
<use xlink:href="#c_6a63bda47b2f3da1cec6aadd80692cfe" x="610.583984"/>
<use xlink:href="#c_0f8c41144cfbf448378cb6fd1cc8e549" x="638.367188"/>
<use xlink:href="#c_74d54c94aa871ec39e2bc6697dde6c00" x="677.576172"/>
<use xlink:href="#c_d41d8cd98f00b204e9800998ecf8427e" x="740.955078"/>
<use xlink:href="#c_0bce5afba2dc6b9024b26277c38ad8e8" x="772.742188"/>
<use xlink:href="#c_c48ceabac27bf136feba2f4bf2716ab6" x="834.265625"/>
<use xlink:href="#c_0bce5afba2dc6b9024b26277c38ad8e8" x="893.445313"/>
<use xlink:href="#c_fe791a90f5471e2ab20a5ed41a7fa451" x="954.968750"/>
<use xlink:href="#c_0f8c41144cfbf448378cb6fd1cc8e549" x="1018.347656"/>
<use xlink:href="#c_8e0810ad13fe20a2a87a2619799b154d" x="1057.556641"/>
</g>
</g>
</g>
</g>
</svg>
